ISO-10303-21;
HEADER;
FILE_DESCRIPTION(('KiCad electronic assembly'),'2;1');
FILE_NAME('logger.step','2026-07-26T21:49:51',('Pcbnew'),('Kicad'),
  'Open CASCADE STEP processor 7.9','KiCad to STEP converter','Unknown'
  );
FILE_SCHEMA(('AUTOMOTIVE_DESIGN { 1 0 10303 214 1 1 1 1 }'));
ENDSEC;
DATA;
#1 = APPLICATION_PROTOCOL_DEFINITION('international standard',
  'automotive_design',2000,#2);
#2 = APPLICATION_CONTEXT(
  'core data for automotive mechanical design processes');
#3 = SHAPE_DEFINITION_REPRESENTATION(#4,#10);
#4 = PRODUCT_DEFINITION_SHAPE('','',#5);
#5 = PRODUCT_DEFINITION('design','',#6,#9);
#6 = PRODUCT_DEFINITION_FORMATION('','',#7);
#7 = PRODUCT('logger 1','logger 1','',(#8));
#8 = PRODUCT_CONTEXT('',#2,'mechanical');
#9 = PRODUCT_DEFINITION_CONTEXT('part definition',#2,'design');
#10 = SHAPE_REPRESENTATION('',(#11,#15),#19);
#11 = AXIS2_PLACEMENT_3D('',#12,#13,#14);
#12 = CARTESIAN_POINT('',(0.,0.,0.));
#13 = DIRECTION('',(0.,0.,1.));
#14 = DIRECTION('',(1.,0.,-0.));
#15 = AXIS2_PLACEMENT_3D('',#16,#17,#18);
#16 = CARTESIAN_POINT('',(0.,0.,0.));
#17 = DIRECTION('',(0.,0.,1.));
#18 = DIRECTION('',(1.,0.,-0.));
#19 = ( GEOMETRIC_REPRESENTATION_CONTEXT(3) 
GLOBAL_UNCERTAINTY_ASSIGNED_CONTEXT((#23)) GLOBAL_UNIT_ASSIGNED_CONTEXT(
(#20,#21,#22)) REPRESENTATION_CONTEXT('Context #1',
  '3D Context with UNIT and UNCERTAINTY') );
#20 = ( LENGTH_UNIT() NAMED_UNIT(*) SI_UNIT(.MILLI.,.METRE.) );
#21 = ( NAMED_UNIT(*) PLANE_ANGLE_UNIT() SI_UNIT($,.RADIAN.) );
#22 = ( NAMED_UNIT(*) SI_UNIT($,.STERADIAN.) SOLID_ANGLE_UNIT() );
#23 = UNCERTAINTY_MEASURE_WITH_UNIT(LENGTH_MEASURE(1.E-07),#20,
  'distance_accuracy_value','confusion accuracy');
#24 = PRODUCT_RELATED_PRODUCT_CATEGORY('part',$,(#7));
#25 = SHAPE_DEFINITION_REPRESENTATION(#26,#32);
#26 = PRODUCT_DEFINITION_SHAPE('','',#27);
#27 = PRODUCT_DEFINITION('design','',#28,#31);
#28 = PRODUCT_DEFINITION_FORMATION('','',#29);
#29 = PRODUCT('logger_PCB','logger_PCB','',(#30));
#30 = PRODUCT_CONTEXT('',#2,'mechanical');
#31 = PRODUCT_DEFINITION_CONTEXT('part definition',#2,'design');
#32 = ADVANCED_BREP_SHAPE_REPRESENTATION('',(#11,#33),#1468);
#33 = MANIFOLD_SOLID_BREP('',#34);
#34 = CLOSED_SHELL('',(#35,#77,#108,#139,#500,#861,#878,#895,#912,#929,
    #941,#958,#980,#997,#1014,#1026,#1048,#1065,#1082,#1094,#1111,#1133,
    #1150,#1167,#1179,#1196,#1218,#1235,#1252,#1264,#1281,#1298,#1315,
    #1332,#1349,#1366,#1383,#1400,#1417,#1434,#1451));
#35 = ADVANCED_FACE('',(#36),#72,.T.);
#36 = FACE_BOUND('',#37,.T.);
#37 = EDGE_LOOP('',(#38,#48,#57,#65));
#38 = ORIENTED_EDGE('',*,*,#39,.T.);
#39 = EDGE_CURVE('',#40,#42,#44,.T.);
#40 = VERTEX_POINT('',#41);
#41 = CARTESIAN_POINT('',(84.1,-105.5,0.));
#42 = VERTEX_POINT('',#43);
#43 = CARTESIAN_POINT('',(84.1,-105.5,1.51));
#44 = LINE('',#45,#46);
#45 = CARTESIAN_POINT('',(84.1,-105.5,0.));
#46 = VECTOR('',#47,1.);
#47 = DIRECTION('',(0.,0.,1.));
#48 = ORIENTED_EDGE('',*,*,#49,.T.);
#49 = EDGE_CURVE('',#42,#50,#52,.T.);
#50 = VERTEX_POINT('',#51);
#51 = CARTESIAN_POINT('',(86.3,-107.7,1.51));
#52 = CIRCLE('',#53,2.199999722119);
#53 = AXIS2_PLACEMENT_3D('',#54,#55,#56);
#54 = CARTESIAN_POINT('',(84.100000277881,-107.6999997221,1.51));
#55 = DIRECTION('',(0.,0.,-1.));
#56 = DIRECTION('',(-1.263097616472E-07,1.,0.));
#57 = ORIENTED_EDGE('',*,*,#58,.F.);
#58 = EDGE_CURVE('',#59,#50,#61,.T.);
#59 = VERTEX_POINT('',#60);
#60 = CARTESIAN_POINT('',(86.3,-107.7,0.));
#61 = LINE('',#62,#63);
#62 = CARTESIAN_POINT('',(86.3,-107.7,0.));
#63 = VECTOR('',#64,1.);
#64 = DIRECTION('',(0.,0.,1.));
#65 = ORIENTED_EDGE('',*,*,#66,.F.);
#66 = EDGE_CURVE('',#40,#59,#67,.T.);
#67 = CIRCLE('',#68,2.199999722119);
#68 = AXIS2_PLACEMENT_3D('',#69,#70,#71);
#69 = CARTESIAN_POINT('',(84.100000277881,-107.6999997221,0.));
#70 = DIRECTION('',(0.,0.,-1.));
#71 = DIRECTION('',(-1.263097616472E-07,1.,0.));
#72 = CYLINDRICAL_SURFACE('',#73,2.199999722119);
#73 = AXIS2_PLACEMENT_3D('',#74,#75,#76);
#74 = CARTESIAN_POINT('',(84.100000277881,-107.6999997221,0.));
#75 = DIRECTION('',(0.,0.,-1.));
#76 = DIRECTION('',(-1.263097616472E-07,1.,0.));
#77 = ADVANCED_FACE('',(#78),#103,.T.);
#78 = FACE_BOUND('',#79,.T.);
#79 = EDGE_LOOP('',(#80,#90,#96,#97));
#80 = ORIENTED_EDGE('',*,*,#81,.T.);
#81 = EDGE_CURVE('',#82,#84,#86,.T.);
#82 = VERTEX_POINT('',#83);
#83 = CARTESIAN_POINT('',(58.5,-105.5,0.));
#84 = VERTEX_POINT('',#85);
#85 = CARTESIAN_POINT('',(58.5,-105.5,1.51));
#86 = LINE('',#87,#88);
#87 = CARTESIAN_POINT('',(58.5,-105.5,0.));
#88 = VECTOR('',#89,1.);
#89 = DIRECTION('',(0.,0.,1.));
#90 = ORIENTED_EDGE('',*,*,#91,.T.);
#91 = EDGE_CURVE('',#84,#42,#92,.T.);
#92 = LINE('',#93,#94);
#93 = CARTESIAN_POINT('',(58.5,-105.5,1.51));
#94 = VECTOR('',#95,1.);
#95 = DIRECTION('',(1.,0.,0.));
#96 = ORIENTED_EDGE('',*,*,#39,.F.);
#97 = ORIENTED_EDGE('',*,*,#98,.F.);
#98 = EDGE_CURVE('',#82,#40,#99,.T.);
#99 = LINE('',#100,#101);
#100 = CARTESIAN_POINT('',(58.5,-105.5,0.));
#101 = VECTOR('',#102,1.);
#102 = DIRECTION('',(1.,0.,0.));
#103 = PLANE('',#104);
#104 = AXIS2_PLACEMENT_3D('',#105,#106,#107);
#105 = CARTESIAN_POINT('',(58.5,-105.5,0.));
#106 = DIRECTION('',(0.,1.,0.));
#107 = DIRECTION('',(1.,0.,0.));
#108 = ADVANCED_FACE('',(#109),#134,.T.);
#109 = FACE_BOUND('',#110,.T.);
#110 = EDGE_LOOP('',(#111,#112,#120,#128));
#111 = ORIENTED_EDGE('',*,*,#58,.T.);
#112 = ORIENTED_EDGE('',*,*,#113,.T.);
#113 = EDGE_CURVE('',#50,#114,#116,.T.);
#114 = VERTEX_POINT('',#115);
#115 = CARTESIAN_POINT('',(86.3,-133.3,1.51));
#116 = LINE('',#117,#118);
#117 = CARTESIAN_POINT('',(86.3,-107.7,1.51));
#118 = VECTOR('',#119,1.);
#119 = DIRECTION('',(0.,-1.,0.));
#120 = ORIENTED_EDGE('',*,*,#121,.F.);
#121 = EDGE_CURVE('',#122,#114,#124,.T.);
#122 = VERTEX_POINT('',#123);
#123 = CARTESIAN_POINT('',(86.3,-133.3,0.));
#124 = LINE('',#125,#126);
#125 = CARTESIAN_POINT('',(86.3,-133.3,0.));
#126 = VECTOR('',#127,1.);
#127 = DIRECTION('',(0.,0.,1.));
#128 = ORIENTED_EDGE('',*,*,#129,.F.);
#129 = EDGE_CURVE('',#59,#122,#130,.T.);
#130 = LINE('',#131,#132);
#131 = CARTESIAN_POINT('',(86.3,-107.7,0.));
#132 = VECTOR('',#133,1.);
#133 = DIRECTION('',(0.,-1.,0.));
#134 = PLANE('',#135);
#135 = AXIS2_PLACEMENT_3D('',#136,#137,#138);
#136 = CARTESIAN_POINT('',(86.3,-107.7,0.));
#137 = DIRECTION('',(1.,0.,-0.));
#138 = DIRECTION('',(0.,-1.,0.));
#139 = ADVANCED_FACE('',(#140,#186,#197,#233,#269,#280,#316,#327,#363,
    #374,#385,#396,#407,#418,#429,#440,#451,#462,#473,#484),#495,.F.);
#140 = FACE_BOUND('',#141,.F.);
#141 = EDGE_LOOP('',(#142,#143,#144,#153,#161,#170,#178,#185));
#142 = ORIENTED_EDGE('',*,*,#66,.F.);
#143 = ORIENTED_EDGE('',*,*,#98,.F.);
#144 = ORIENTED_EDGE('',*,*,#145,.F.);
#145 = EDGE_CURVE('',#146,#82,#148,.T.);
#146 = VERTEX_POINT('',#147);
#147 = CARTESIAN_POINT('',(56.3,-107.7,0.));
#148 = CIRCLE('',#149,2.199999722119);
#149 = AXIS2_PLACEMENT_3D('',#150,#151,#152);
#150 = CARTESIAN_POINT('',(58.499999722119,-107.6999997221,0.));
#151 = DIRECTION('',(0.,0.,-1.));
#152 = DIRECTION('',(-1.,-1.263097616472E-07,-0.));
#153 = ORIENTED_EDGE('',*,*,#154,.F.);
#154 = EDGE_CURVE('',#155,#146,#157,.T.);
#155 = VERTEX_POINT('',#156);
#156 = CARTESIAN_POINT('',(56.3,-133.3,0.));
#157 = LINE('',#158,#159);
#158 = CARTESIAN_POINT('',(56.3,-133.3,0.));
#159 = VECTOR('',#160,1.);
#160 = DIRECTION('',(0.,1.,0.));
#161 = ORIENTED_EDGE('',*,*,#162,.F.);
#162 = EDGE_CURVE('',#163,#155,#165,.T.);
#163 = VERTEX_POINT('',#164);
#164 = CARTESIAN_POINT('',(58.5,-135.5,0.));
#165 = CIRCLE('',#166,2.199999722119);
#166 = AXIS2_PLACEMENT_3D('',#167,#168,#169);
#167 = CARTESIAN_POINT('',(58.499999722119,-133.3000002778,0.));
#168 = DIRECTION('',(0.,0.,-1.));
#169 = DIRECTION('',(1.263097551877E-07,-1.,0.));
#170 = ORIENTED_EDGE('',*,*,#171,.F.);
#171 = EDGE_CURVE('',#172,#163,#174,.T.);
#172 = VERTEX_POINT('',#173);
#173 = CARTESIAN_POINT('',(84.1,-135.5,0.));
#174 = LINE('',#175,#176);
#175 = CARTESIAN_POINT('',(84.1,-135.5,0.));
#176 = VECTOR('',#177,1.);
#177 = DIRECTION('',(-1.,0.,0.));
#178 = ORIENTED_EDGE('',*,*,#179,.F.);
#179 = EDGE_CURVE('',#122,#172,#180,.T.);
#180 = CIRCLE('',#181,2.199999722119);
#181 = AXIS2_PLACEMENT_3D('',#182,#183,#184);
#182 = CARTESIAN_POINT('',(84.100000277881,-133.3000002778,0.));
#183 = DIRECTION('',(0.,0.,-1.));
#184 = DIRECTION('',(1.,1.263097487282E-07,0.));
#185 = ORIENTED_EDGE('',*,*,#129,.F.);
#186 = FACE_BOUND('',#187,.F.);
#187 = EDGE_LOOP('',(#188));
#188 = ORIENTED_EDGE('',*,*,#189,.T.);
#189 = EDGE_CURVE('',#190,#190,#192,.T.);
#190 = VERTEX_POINT('',#191);
#191 = CARTESIAN_POINT('',(58.5,-134.391877,0.));
#192 = CIRCLE('',#193,1.1);
#193 = AXIS2_PLACEMENT_3D('',#194,#195,#196);
#194 = CARTESIAN_POINT('',(58.5,-133.291877,0.));
#195 = DIRECTION('',(-0.,0.,-1.));
#196 = DIRECTION('',(-0.,-1.,0.));
#197 = FACE_BOUND('',#198,.F.);
#198 = EDGE_LOOP('',(#199,#210,#218,#227));
#199 = ORIENTED_EDGE('',*,*,#200,.T.);
#200 = EDGE_CURVE('',#201,#203,#205,.T.);
#201 = VERTEX_POINT('',#202);
#202 = CARTESIAN_POINT('',(62.12,-132.561877,0.));
#203 = VERTEX_POINT('',#204);
#204 = CARTESIAN_POINT('',(61.52,-132.561877,0.));
#205 = CIRCLE('',#206,0.3);
#206 = AXIS2_PLACEMENT_3D('',#207,#208,#209);
#207 = CARTESIAN_POINT('',(61.82,-132.561877,0.));
#208 = DIRECTION('',(-0.,0.,-1.));
#209 = DIRECTION('',(-1.,0.,0.));
#210 = ORIENTED_EDGE('',*,*,#211,.T.);
#211 = EDGE_CURVE('',#203,#212,#214,.T.);
#212 = VERTEX_POINT('',#213);
#213 = CARTESIAN_POINT('',(61.52,-131.961877,0.));
#214 = LINE('',#215,#216);
#215 = CARTESIAN_POINT('',(61.52,-65.9809385,0.));
#216 = VECTOR('',#217,1.);
#217 = DIRECTION('',(-0.,1.,0.));
#218 = ORIENTED_EDGE('',*,*,#219,.T.);
#219 = EDGE_CURVE('',#212,#220,#222,.T.);
#220 = VERTEX_POINT('',#221);
#221 = CARTESIAN_POINT('',(62.12,-131.961877,0.));
#222 = CIRCLE('',#223,0.3);
#223 = AXIS2_PLACEMENT_3D('',#224,#225,#226);
#224 = CARTESIAN_POINT('',(61.82,-131.961877,0.));
#225 = DIRECTION('',(0.,-0.,-1.));
#226 = DIRECTION('',(1.,0.,-0.));
#227 = ORIENTED_EDGE('',*,*,#228,.T.);
#228 = EDGE_CURVE('',#220,#201,#229,.T.);
#229 = LINE('',#230,#231);
#230 = CARTESIAN_POINT('',(62.12,-66.2809385,0.));
#231 = VECTOR('',#232,1.);
#232 = DIRECTION('',(0.,-1.,0.));
#233 = FACE_BOUND('',#234,.F.);
#234 = EDGE_LOOP('',(#235,#246,#254,#263));
#235 = ORIENTED_EDGE('',*,*,#236,.T.);
#236 = EDGE_CURVE('',#237,#239,#241,.T.);
#237 = VERTEX_POINT('',#238);
#238 = CARTESIAN_POINT('',(62.12,-128.631877,0.));
#239 = VERTEX_POINT('',#240);
#240 = CARTESIAN_POINT('',(61.52,-128.631877,0.));
#241 = CIRCLE('',#242,0.3);
#242 = AXIS2_PLACEMENT_3D('',#243,#244,#245);
#243 = CARTESIAN_POINT('',(61.82,-128.631877,0.));
#244 = DIRECTION('',(-0.,0.,-1.));
#245 = DIRECTION('',(-1.,0.,0.));
#246 = ORIENTED_EDGE('',*,*,#247,.T.);
#247 = EDGE_CURVE('',#239,#248,#250,.T.);
#248 = VERTEX_POINT('',#249);
#249 = CARTESIAN_POINT('',(61.52,-127.531877,0.));
#250 = LINE('',#251,#252);
#251 = CARTESIAN_POINT('',(61.52,-63.7659385,0.));
#252 = VECTOR('',#253,1.);
#253 = DIRECTION('',(-0.,1.,0.));
#254 = ORIENTED_EDGE('',*,*,#255,.T.);
#255 = EDGE_CURVE('',#248,#256,#258,.T.);
#256 = VERTEX_POINT('',#257);
#257 = CARTESIAN_POINT('',(62.12,-127.531877,0.));
#258 = CIRCLE('',#259,0.3);
#259 = AXIS2_PLACEMENT_3D('',#260,#261,#262);
#260 = CARTESIAN_POINT('',(61.82,-127.531877,0.));
#261 = DIRECTION('',(0.,-0.,-1.));
#262 = DIRECTION('',(1.,4.736951571734E-14,-0.));
#263 = ORIENTED_EDGE('',*,*,#264,.T.);
#264 = EDGE_CURVE('',#256,#237,#265,.T.);
#265 = LINE('',#266,#267);
#266 = CARTESIAN_POINT('',(62.12,-64.3159385,0.));
#267 = VECTOR('',#268,1.);
#268 = DIRECTION('',(0.,-1.,0.));
#269 = FACE_BOUND('',#270,.F.);
#270 = EDGE_LOOP('',(#271));
#271 = ORIENTED_EDGE('',*,*,#272,.T.);
#272 = EDGE_CURVE('',#273,#273,#275,.T.);
#273 = VERTEX_POINT('',#274);
#274 = CARTESIAN_POINT('',(63.25,-128.936877,0.));
#275 = CIRCLE('',#276,0.325);
#276 = AXIS2_PLACEMENT_3D('',#277,#278,#279);
#277 = CARTESIAN_POINT('',(63.25,-128.611877,0.));
#278 = DIRECTION('',(-0.,0.,-1.));
#279 = DIRECTION('',(-0.,-1.,0.));
#280 = FACE_BOUND('',#281,.F.);
#281 = EDGE_LOOP('',(#282,#293,#301,#310));
#282 = ORIENTED_EDGE('',*,*,#283,.T.);
#283 = EDGE_CURVE('',#284,#286,#288,.T.);
#284 = VERTEX_POINT('',#285);
#285 = CARTESIAN_POINT('',(70.76,-132.561877,0.));
#286 = VERTEX_POINT('',#287);
#287 = CARTESIAN_POINT('',(70.16,-132.561877,0.));
#288 = CIRCLE('',#289,0.3);
#289 = AXIS2_PLACEMENT_3D('',#290,#291,#292);
#290 = CARTESIAN_POINT('',(70.46,-132.561877,0.));
#291 = DIRECTION('',(-0.,0.,-1.));
#292 = DIRECTION('',(-1.,0.,0.));
#293 = ORIENTED_EDGE('',*,*,#294,.T.);
#294 = EDGE_CURVE('',#286,#295,#297,.T.);
#295 = VERTEX_POINT('',#296);
#296 = CARTESIAN_POINT('',(70.16,-131.961877,0.));
#297 = LINE('',#298,#299);
#298 = CARTESIAN_POINT('',(70.16,-65.9809385,0.));
#299 = VECTOR('',#300,1.);
#300 = DIRECTION('',(-0.,1.,0.));
#301 = ORIENTED_EDGE('',*,*,#302,.T.);
#302 = EDGE_CURVE('',#295,#303,#305,.T.);
#303 = VERTEX_POINT('',#304);
#304 = CARTESIAN_POINT('',(70.76,-131.961877,0.));
#305 = CIRCLE('',#306,0.3);
#306 = AXIS2_PLACEMENT_3D('',#307,#308,#309);
#307 = CARTESIAN_POINT('',(70.46,-131.961877,0.));
#308 = DIRECTION('',(0.,-0.,-1.));
#309 = DIRECTION('',(1.,0.,-0.));
#310 = ORIENTED_EDGE('',*,*,#311,.T.);
#311 = EDGE_CURVE('',#303,#284,#312,.T.);
#312 = LINE('',#313,#314);
#313 = CARTESIAN_POINT('',(70.76,-66.2809385,0.));
#314 = VECTOR('',#315,1.);
#315 = DIRECTION('',(0.,-1.,0.));
#316 = FACE_BOUND('',#317,.F.);
#317 = EDGE_LOOP('',(#318));
#318 = ORIENTED_EDGE('',*,*,#319,.T.);
#319 = EDGE_CURVE('',#320,#320,#322,.T.);
#320 = VERTEX_POINT('',#321);
#321 = CARTESIAN_POINT('',(69.03,-128.936877,0.));
#322 = CIRCLE('',#323,0.325);
#323 = AXIS2_PLACEMENT_3D('',#324,#325,#326);
#324 = CARTESIAN_POINT('',(69.03,-128.611877,0.));
#325 = DIRECTION('',(-0.,0.,-1.));
#326 = DIRECTION('',(-0.,-1.,0.));
#327 = FACE_BOUND('',#328,.F.);
#328 = EDGE_LOOP('',(#329,#340,#348,#357));
#329 = ORIENTED_EDGE('',*,*,#330,.T.);
#330 = EDGE_CURVE('',#331,#333,#335,.T.);
#331 = VERTEX_POINT('',#332);
#332 = CARTESIAN_POINT('',(70.76,-128.631877,0.));
#333 = VERTEX_POINT('',#334);
#334 = CARTESIAN_POINT('',(70.16,-128.631877,0.));
#335 = CIRCLE('',#336,0.3);
#336 = AXIS2_PLACEMENT_3D('',#337,#338,#339);
#337 = CARTESIAN_POINT('',(70.46,-128.631877,0.));
#338 = DIRECTION('',(-0.,0.,-1.));
#339 = DIRECTION('',(-1.,0.,0.));
#340 = ORIENTED_EDGE('',*,*,#341,.T.);
#341 = EDGE_CURVE('',#333,#342,#344,.T.);
#342 = VERTEX_POINT('',#343);
#343 = CARTESIAN_POINT('',(70.16,-127.531877,0.));
#344 = LINE('',#345,#346);
#345 = CARTESIAN_POINT('',(70.16,-63.7659385,0.));
#346 = VECTOR('',#347,1.);
#347 = DIRECTION('',(-0.,1.,0.));
#348 = ORIENTED_EDGE('',*,*,#349,.T.);
#349 = EDGE_CURVE('',#342,#350,#352,.T.);
#350 = VERTEX_POINT('',#351);
#351 = CARTESIAN_POINT('',(70.76,-127.531877,0.));
#352 = CIRCLE('',#353,0.3);
#353 = AXIS2_PLACEMENT_3D('',#354,#355,#356);
#354 = CARTESIAN_POINT('',(70.46,-127.531877,0.));
#355 = DIRECTION('',(0.,-0.,-1.));
#356 = DIRECTION('',(1.,4.736951571734E-14,-0.));
#357 = ORIENTED_EDGE('',*,*,#358,.T.);
#358 = EDGE_CURVE('',#350,#331,#359,.T.);
#359 = LINE('',#360,#361);
#360 = CARTESIAN_POINT('',(70.76,-64.3159385,0.));
#361 = VECTOR('',#362,1.);
#362 = DIRECTION('',(0.,-1.,0.));
#363 = FACE_BOUND('',#364,.F.);
#364 = EDGE_LOOP('',(#365));
#365 = ORIENTED_EDGE('',*,*,#366,.T.);
#366 = EDGE_CURVE('',#367,#367,#369,.T.);
#367 = VERTEX_POINT('',#368);
#368 = CARTESIAN_POINT('',(57.7,-124.15,0.));
#369 = CIRCLE('',#370,0.25);
#370 = AXIS2_PLACEMENT_3D('',#371,#372,#373);
#371 = CARTESIAN_POINT('',(57.7,-123.9,0.));
#372 = DIRECTION('',(-0.,0.,-1.));
#373 = DIRECTION('',(-0.,-1.,0.));
#374 = FACE_BOUND('',#375,.F.);
#375 = EDGE_LOOP('',(#376));
#376 = ORIENTED_EDGE('',*,*,#377,.T.);
#377 = EDGE_CURVE('',#378,#378,#380,.T.);
#378 = VERTEX_POINT('',#379);
#379 = CARTESIAN_POINT('',(57.7,-122.05,0.));
#380 = CIRCLE('',#381,0.25);
#381 = AXIS2_PLACEMENT_3D('',#382,#383,#384);
#382 = CARTESIAN_POINT('',(57.7,-121.8,0.));
#383 = DIRECTION('',(-0.,0.,-1.));
#384 = DIRECTION('',(-0.,-1.,0.));
#385 = FACE_BOUND('',#386,.F.);
#386 = EDGE_LOOP('',(#387));
#387 = ORIENTED_EDGE('',*,*,#388,.T.);
#388 = EDGE_CURVE('',#389,#389,#391,.T.);
#389 = VERTEX_POINT('',#390);
#390 = CARTESIAN_POINT('',(57.7,-119.95,0.));
#391 = CIRCLE('',#392,0.25);
#392 = AXIS2_PLACEMENT_3D('',#393,#394,#395);
#393 = CARTESIAN_POINT('',(57.7,-119.7,0.));
#394 = DIRECTION('',(-0.,0.,-1.));
#395 = DIRECTION('',(-0.,-1.,0.));
#396 = FACE_BOUND('',#397,.F.);
#397 = EDGE_LOOP('',(#398));
#398 = ORIENTED_EDGE('',*,*,#399,.T.);
#399 = EDGE_CURVE('',#400,#400,#402,.T.);
#400 = VERTEX_POINT('',#401);
#401 = CARTESIAN_POINT('',(57.7,-117.85,0.));
#402 = CIRCLE('',#403,0.25);
#403 = AXIS2_PLACEMENT_3D('',#404,#405,#406);
#404 = CARTESIAN_POINT('',(57.7,-117.6,0.));
#405 = DIRECTION('',(-0.,0.,-1.));
#406 = DIRECTION('',(-0.,-1.,0.));
#407 = FACE_BOUND('',#408,.F.);
#408 = EDGE_LOOP('',(#409));
#409 = ORIENTED_EDGE('',*,*,#410,.T.);
#410 = EDGE_CURVE('',#411,#411,#413,.T.);
#411 = VERTEX_POINT('',#412);
#412 = CARTESIAN_POINT('',(58.5,-108.8,0.));
#413 = CIRCLE('',#414,1.1);
#414 = AXIS2_PLACEMENT_3D('',#415,#416,#417);
#415 = CARTESIAN_POINT('',(58.5,-107.7,0.));
#416 = DIRECTION('',(-0.,0.,-1.));
#417 = DIRECTION('',(-0.,-1.,0.));
#418 = FACE_BOUND('',#419,.F.);
#419 = EDGE_LOOP('',(#420));
#420 = ORIENTED_EDGE('',*,*,#421,.T.);
#421 = EDGE_CURVE('',#422,#422,#424,.T.);
#422 = VERTEX_POINT('',#423);
#423 = CARTESIAN_POINT('',(61.8,-108.45,0.));
#424 = CIRCLE('',#425,0.25);
#425 = AXIS2_PLACEMENT_3D('',#426,#427,#428);
#426 = CARTESIAN_POINT('',(61.8,-108.2,0.));
#427 = DIRECTION('',(-0.,0.,-1.));
#428 = DIRECTION('',(-0.,-1.,0.));
#429 = FACE_BOUND('',#430,.F.);
#430 = EDGE_LOOP('',(#431));
#431 = ORIENTED_EDGE('',*,*,#432,.T.);
#432 = EDGE_CURVE('',#433,#433,#435,.T.);
#433 = VERTEX_POINT('',#434);
#434 = CARTESIAN_POINT('',(64.85,-108.55,0.));
#435 = CIRCLE('',#436,0.25);
#436 = AXIS2_PLACEMENT_3D('',#437,#438,#439);
#437 = CARTESIAN_POINT('',(64.85,-108.3,0.));
#438 = DIRECTION('',(-0.,0.,-1.));
#439 = DIRECTION('',(-0.,-1.,0.));
#440 = FACE_BOUND('',#441,.F.);
#441 = EDGE_LOOP('',(#442));
#442 = ORIENTED_EDGE('',*,*,#443,.T.);
#443 = EDGE_CURVE('',#444,#444,#446,.T.);
#444 = VERTEX_POINT('',#445);
#445 = CARTESIAN_POINT('',(66.975,-108.55,0.));
#446 = CIRCLE('',#447,0.25);
#447 = AXIS2_PLACEMENT_3D('',#448,#449,#450);
#448 = CARTESIAN_POINT('',(66.975,-108.3,0.));
#449 = DIRECTION('',(-0.,0.,-1.));
#450 = DIRECTION('',(-0.,-1.,0.));
#451 = FACE_BOUND('',#452,.F.);
#452 = EDGE_LOOP('',(#453));
#453 = ORIENTED_EDGE('',*,*,#454,.T.);
#454 = EDGE_CURVE('',#455,#455,#457,.T.);
#455 = VERTEX_POINT('',#456);
#456 = CARTESIAN_POINT('',(69.1,-108.55,0.));
#457 = CIRCLE('',#458,0.25);
#458 = AXIS2_PLACEMENT_3D('',#459,#460,#461);
#459 = CARTESIAN_POINT('',(69.1,-108.3,0.));
#460 = DIRECTION('',(-0.,0.,-1.));
#461 = DIRECTION('',(-0.,-1.,0.));
#462 = FACE_BOUND('',#463,.F.);
#463 = EDGE_LOOP('',(#464));
#464 = ORIENTED_EDGE('',*,*,#465,.T.);
#465 = EDGE_CURVE('',#466,#466,#468,.T.);
#466 = VERTEX_POINT('',#467);
#467 = CARTESIAN_POINT('',(71.225,-108.55,0.));
#468 = CIRCLE('',#469,0.25);
#469 = AXIS2_PLACEMENT_3D('',#470,#471,#472);
#470 = CARTESIAN_POINT('',(71.225,-108.3,0.));
#471 = DIRECTION('',(-0.,0.,-1.));
#472 = DIRECTION('',(-0.,-1.,0.));
#473 = FACE_BOUND('',#474,.F.);
#474 = EDGE_LOOP('',(#475));
#475 = ORIENTED_EDGE('',*,*,#476,.T.);
#476 = EDGE_CURVE('',#477,#477,#479,.T.);
#477 = VERTEX_POINT('',#478);
#478 = CARTESIAN_POINT('',(73.35,-108.55,0.));
#479 = CIRCLE('',#480,0.25);
#480 = AXIS2_PLACEMENT_3D('',#481,#482,#483);
#481 = CARTESIAN_POINT('',(73.35,-108.3,0.));
#482 = DIRECTION('',(-0.,0.,-1.));
#483 = DIRECTION('',(-0.,-1.,0.));
#484 = FACE_BOUND('',#485,.F.);
#485 = EDGE_LOOP('',(#486));
#486 = ORIENTED_EDGE('',*,*,#487,.T.);
#487 = EDGE_CURVE('',#488,#488,#490,.T.);
#488 = VERTEX_POINT('',#489);
#489 = CARTESIAN_POINT('',(84.1,-108.8,0.));
#490 = CIRCLE('',#491,1.1);
#491 = AXIS2_PLACEMENT_3D('',#492,#493,#494);
#492 = CARTESIAN_POINT('',(84.1,-107.7,0.));
#493 = DIRECTION('',(-0.,0.,-1.));
#494 = DIRECTION('',(-0.,-1.,0.));
#495 = PLANE('',#496);
#496 = AXIS2_PLACEMENT_3D('',#497,#498,#499);
#497 = CARTESIAN_POINT('',(0.,0.,0.));
#498 = DIRECTION('',(0.,0.,1.));
#499 = DIRECTION('',(1.,0.,-0.));
#500 = ADVANCED_FACE('',(#501,#547,#558,#594,#630,#641,#677,#688,#724,
    #735,#746,#757,#768,#779,#790,#801,#812,#823,#834,#845),#856,.T.);
#501 = FACE_BOUND('',#502,.T.);
#502 = EDGE_LOOP('',(#503,#504,#505,#514,#522,#531,#539,#546));
#503 = ORIENTED_EDGE('',*,*,#49,.F.);
#504 = ORIENTED_EDGE('',*,*,#91,.F.);
#505 = ORIENTED_EDGE('',*,*,#506,.F.);
#506 = EDGE_CURVE('',#507,#84,#509,.T.);
#507 = VERTEX_POINT('',#508);
#508 = CARTESIAN_POINT('',(56.3,-107.7,1.51));
#509 = CIRCLE('',#510,2.199999722119);
#510 = AXIS2_PLACEMENT_3D('',#511,#512,#513);
#511 = CARTESIAN_POINT('',(58.499999722119,-107.6999997221,1.51));
#512 = DIRECTION('',(0.,0.,-1.));
#513 = DIRECTION('',(-1.,-1.263097616472E-07,-0.));
#514 = ORIENTED_EDGE('',*,*,#515,.F.);
#515 = EDGE_CURVE('',#516,#507,#518,.T.);
#516 = VERTEX_POINT('',#517);
#517 = CARTESIAN_POINT('',(56.3,-133.3,1.51));
#518 = LINE('',#519,#520);
#519 = CARTESIAN_POINT('',(56.3,-133.3,1.51));
#520 = VECTOR('',#521,1.);
#521 = DIRECTION('',(0.,1.,0.));
#522 = ORIENTED_EDGE('',*,*,#523,.F.);
#523 = EDGE_CURVE('',#524,#516,#526,.T.);
#524 = VERTEX_POINT('',#525);
#525 = CARTESIAN_POINT('',(58.5,-135.5,1.51));
#526 = CIRCLE('',#527,2.199999722119);
#527 = AXIS2_PLACEMENT_3D('',#528,#529,#530);
#528 = CARTESIAN_POINT('',(58.499999722119,-133.3000002778,1.51));
#529 = DIRECTION('',(0.,0.,-1.));
#530 = DIRECTION('',(1.263097551877E-07,-1.,0.));
#531 = ORIENTED_EDGE('',*,*,#532,.F.);
#532 = EDGE_CURVE('',#533,#524,#535,.T.);
#533 = VERTEX_POINT('',#534);
#534 = CARTESIAN_POINT('',(84.1,-135.5,1.51));
#535 = LINE('',#536,#537);
#536 = CARTESIAN_POINT('',(84.1,-135.5,1.51));
#537 = VECTOR('',#538,1.);
#538 = DIRECTION('',(-1.,0.,0.));
#539 = ORIENTED_EDGE('',*,*,#540,.F.);
#540 = EDGE_CURVE('',#114,#533,#541,.T.);
#541 = CIRCLE('',#542,2.199999722119);
#542 = AXIS2_PLACEMENT_3D('',#543,#544,#545);
#543 = CARTESIAN_POINT('',(84.100000277881,-133.3000002778,1.51));
#544 = DIRECTION('',(0.,0.,-1.));
#545 = DIRECTION('',(1.,1.263097487282E-07,0.));
#546 = ORIENTED_EDGE('',*,*,#113,.F.);
#547 = FACE_BOUND('',#548,.T.);
#548 = EDGE_LOOP('',(#549));
#549 = ORIENTED_EDGE('',*,*,#550,.T.);
#550 = EDGE_CURVE('',#551,#551,#553,.T.);
#551 = VERTEX_POINT('',#552);
#552 = CARTESIAN_POINT('',(58.5,-134.391877,1.51));
#553 = CIRCLE('',#554,1.1);
#554 = AXIS2_PLACEMENT_3D('',#555,#556,#557);
#555 = CARTESIAN_POINT('',(58.5,-133.291877,1.51));
#556 = DIRECTION('',(-0.,0.,-1.));
#557 = DIRECTION('',(-0.,-1.,0.));
#558 = FACE_BOUND('',#559,.T.);
#559 = EDGE_LOOP('',(#560,#571,#579,#588));
#560 = ORIENTED_EDGE('',*,*,#561,.T.);
#561 = EDGE_CURVE('',#562,#564,#566,.T.);
#562 = VERTEX_POINT('',#563);
#563 = CARTESIAN_POINT('',(62.12,-132.561877,1.51));
#564 = VERTEX_POINT('',#565);
#565 = CARTESIAN_POINT('',(61.52,-132.561877,1.51));
#566 = CIRCLE('',#567,0.3);
#567 = AXIS2_PLACEMENT_3D('',#568,#569,#570);
#568 = CARTESIAN_POINT('',(61.82,-132.561877,1.51));
#569 = DIRECTION('',(-0.,0.,-1.));
#570 = DIRECTION('',(-1.,0.,0.));
#571 = ORIENTED_EDGE('',*,*,#572,.T.);
#572 = EDGE_CURVE('',#564,#573,#575,.T.);
#573 = VERTEX_POINT('',#574);
#574 = CARTESIAN_POINT('',(61.52,-131.961877,1.51));
#575 = LINE('',#576,#577);
#576 = CARTESIAN_POINT('',(61.52,-65.9809385,1.51));
#577 = VECTOR('',#578,1.);
#578 = DIRECTION('',(-0.,1.,0.));
#579 = ORIENTED_EDGE('',*,*,#580,.T.);
#580 = EDGE_CURVE('',#573,#581,#583,.T.);
#581 = VERTEX_POINT('',#582);
#582 = CARTESIAN_POINT('',(62.12,-131.961877,1.51));
#583 = CIRCLE('',#584,0.3);
#584 = AXIS2_PLACEMENT_3D('',#585,#586,#587);
#585 = CARTESIAN_POINT('',(61.82,-131.961877,1.51));
#586 = DIRECTION('',(0.,-0.,-1.));
#587 = DIRECTION('',(1.,0.,-0.));
#588 = ORIENTED_EDGE('',*,*,#589,.T.);
#589 = EDGE_CURVE('',#581,#562,#590,.T.);
#590 = LINE('',#591,#592);
#591 = CARTESIAN_POINT('',(62.12,-66.2809385,1.51));
#592 = VECTOR('',#593,1.);
#593 = DIRECTION('',(0.,-1.,0.));
#594 = FACE_BOUND('',#595,.T.);
#595 = EDGE_LOOP('',(#596,#607,#615,#624));
#596 = ORIENTED_EDGE('',*,*,#597,.T.);
#597 = EDGE_CURVE('',#598,#600,#602,.T.);
#598 = VERTEX_POINT('',#599);
#599 = CARTESIAN_POINT('',(62.12,-128.631877,1.51));
#600 = VERTEX_POINT('',#601);
#601 = CARTESIAN_POINT('',(61.52,-128.631877,1.51));
#602 = CIRCLE('',#603,0.3);
#603 = AXIS2_PLACEMENT_3D('',#604,#605,#606);
#604 = CARTESIAN_POINT('',(61.82,-128.631877,1.51));
#605 = DIRECTION('',(-0.,0.,-1.));
#606 = DIRECTION('',(-1.,0.,0.));
#607 = ORIENTED_EDGE('',*,*,#608,.T.);
#608 = EDGE_CURVE('',#600,#609,#611,.T.);
#609 = VERTEX_POINT('',#610);
#610 = CARTESIAN_POINT('',(61.52,-127.531877,1.51));
#611 = LINE('',#612,#613);
#612 = CARTESIAN_POINT('',(61.52,-63.7659385,1.51));
#613 = VECTOR('',#614,1.);
#614 = DIRECTION('',(-0.,1.,0.));
#615 = ORIENTED_EDGE('',*,*,#616,.T.);
#616 = EDGE_CURVE('',#609,#617,#619,.T.);
#617 = VERTEX_POINT('',#618);
#618 = CARTESIAN_POINT('',(62.12,-127.531877,1.51));
#619 = CIRCLE('',#620,0.3);
#620 = AXIS2_PLACEMENT_3D('',#621,#622,#623);
#621 = CARTESIAN_POINT('',(61.82,-127.531877,1.51));
#622 = DIRECTION('',(0.,-0.,-1.));
#623 = DIRECTION('',(1.,4.736951571734E-14,-0.));
#624 = ORIENTED_EDGE('',*,*,#625,.T.);
#625 = EDGE_CURVE('',#617,#598,#626,.T.);
#626 = LINE('',#627,#628);
#627 = CARTESIAN_POINT('',(62.12,-64.3159385,1.51));
#628 = VECTOR('',#629,1.);
#629 = DIRECTION('',(0.,-1.,0.));
#630 = FACE_BOUND('',#631,.T.);
#631 = EDGE_LOOP('',(#632));
#632 = ORIENTED_EDGE('',*,*,#633,.T.);
#633 = EDGE_CURVE('',#634,#634,#636,.T.);
#634 = VERTEX_POINT('',#635);
#635 = CARTESIAN_POINT('',(63.25,-128.936877,1.51));
#636 = CIRCLE('',#637,0.325);
#637 = AXIS2_PLACEMENT_3D('',#638,#639,#640);
#638 = CARTESIAN_POINT('',(63.25,-128.611877,1.51));
#639 = DIRECTION('',(-0.,0.,-1.));
#640 = DIRECTION('',(-0.,-1.,0.));
#641 = FACE_BOUND('',#642,.T.);
#642 = EDGE_LOOP('',(#643,#654,#662,#671));
#643 = ORIENTED_EDGE('',*,*,#644,.T.);
#644 = EDGE_CURVE('',#645,#647,#649,.T.);
#645 = VERTEX_POINT('',#646);
#646 = CARTESIAN_POINT('',(70.76,-132.561877,1.51));
#647 = VERTEX_POINT('',#648);
#648 = CARTESIAN_POINT('',(70.16,-132.561877,1.51));
#649 = CIRCLE('',#650,0.3);
#650 = AXIS2_PLACEMENT_3D('',#651,#652,#653);
#651 = CARTESIAN_POINT('',(70.46,-132.561877,1.51));
#652 = DIRECTION('',(-0.,0.,-1.));
#653 = DIRECTION('',(-1.,0.,0.));
#654 = ORIENTED_EDGE('',*,*,#655,.T.);
#655 = EDGE_CURVE('',#647,#656,#658,.T.);
#656 = VERTEX_POINT('',#657);
#657 = CARTESIAN_POINT('',(70.16,-131.961877,1.51));
#658 = LINE('',#659,#660);
#659 = CARTESIAN_POINT('',(70.16,-65.9809385,1.51));
#660 = VECTOR('',#661,1.);
#661 = DIRECTION('',(-0.,1.,0.));
#662 = ORIENTED_EDGE('',*,*,#663,.T.);
#663 = EDGE_CURVE('',#656,#664,#666,.T.);
#664 = VERTEX_POINT('',#665);
#665 = CARTESIAN_POINT('',(70.76,-131.961877,1.51));
#666 = CIRCLE('',#667,0.3);
#667 = AXIS2_PLACEMENT_3D('',#668,#669,#670);
#668 = CARTESIAN_POINT('',(70.46,-131.961877,1.51));
#669 = DIRECTION('',(0.,-0.,-1.));
#670 = DIRECTION('',(1.,0.,-0.));
#671 = ORIENTED_EDGE('',*,*,#672,.T.);
#672 = EDGE_CURVE('',#664,#645,#673,.T.);
#673 = LINE('',#674,#675);
#674 = CARTESIAN_POINT('',(70.76,-66.2809385,1.51));
#675 = VECTOR('',#676,1.);
#676 = DIRECTION('',(0.,-1.,0.));
#677 = FACE_BOUND('',#678,.T.);
#678 = EDGE_LOOP('',(#679));
#679 = ORIENTED_EDGE('',*,*,#680,.T.);
#680 = EDGE_CURVE('',#681,#681,#683,.T.);
#681 = VERTEX_POINT('',#682);
#682 = CARTESIAN_POINT('',(69.03,-128.936877,1.51));
#683 = CIRCLE('',#684,0.325);
#684 = AXIS2_PLACEMENT_3D('',#685,#686,#687);
#685 = CARTESIAN_POINT('',(69.03,-128.611877,1.51));
#686 = DIRECTION('',(-0.,0.,-1.));
#687 = DIRECTION('',(-0.,-1.,0.));
#688 = FACE_BOUND('',#689,.T.);
#689 = EDGE_LOOP('',(#690,#701,#709,#718));
#690 = ORIENTED_EDGE('',*,*,#691,.T.);
#691 = EDGE_CURVE('',#692,#694,#696,.T.);
#692 = VERTEX_POINT('',#693);
#693 = CARTESIAN_POINT('',(70.76,-128.631877,1.51));
#694 = VERTEX_POINT('',#695);
#695 = CARTESIAN_POINT('',(70.16,-128.631877,1.51));
#696 = CIRCLE('',#697,0.3);
#697 = AXIS2_PLACEMENT_3D('',#698,#699,#700);
#698 = CARTESIAN_POINT('',(70.46,-128.631877,1.51));
#699 = DIRECTION('',(-0.,0.,-1.));
#700 = DIRECTION('',(-1.,0.,0.));
#701 = ORIENTED_EDGE('',*,*,#702,.T.);
#702 = EDGE_CURVE('',#694,#703,#705,.T.);
#703 = VERTEX_POINT('',#704);
#704 = CARTESIAN_POINT('',(70.16,-127.531877,1.51));
#705 = LINE('',#706,#707);
#706 = CARTESIAN_POINT('',(70.16,-63.7659385,1.51));
#707 = VECTOR('',#708,1.);
#708 = DIRECTION('',(-0.,1.,0.));
#709 = ORIENTED_EDGE('',*,*,#710,.T.);
#710 = EDGE_CURVE('',#703,#711,#713,.T.);
#711 = VERTEX_POINT('',#712);
#712 = CARTESIAN_POINT('',(70.76,-127.531877,1.51));
#713 = CIRCLE('',#714,0.3);
#714 = AXIS2_PLACEMENT_3D('',#715,#716,#717);
#715 = CARTESIAN_POINT('',(70.46,-127.531877,1.51));
#716 = DIRECTION('',(0.,-0.,-1.));
#717 = DIRECTION('',(1.,4.736951571734E-14,-0.));
#718 = ORIENTED_EDGE('',*,*,#719,.T.);
#719 = EDGE_CURVE('',#711,#692,#720,.T.);
#720 = LINE('',#721,#722);
#721 = CARTESIAN_POINT('',(70.76,-64.3159385,1.51));
#722 = VECTOR('',#723,1.);
#723 = DIRECTION('',(0.,-1.,0.));
#724 = FACE_BOUND('',#725,.T.);
#725 = EDGE_LOOP('',(#726));
#726 = ORIENTED_EDGE('',*,*,#727,.T.);
#727 = EDGE_CURVE('',#728,#728,#730,.T.);
#728 = VERTEX_POINT('',#729);
#729 = CARTESIAN_POINT('',(57.7,-124.15,1.51));
#730 = CIRCLE('',#731,0.25);
#731 = AXIS2_PLACEMENT_3D('',#732,#733,#734);
#732 = CARTESIAN_POINT('',(57.7,-123.9,1.51));
#733 = DIRECTION('',(-0.,0.,-1.));
#734 = DIRECTION('',(-0.,-1.,0.));
#735 = FACE_BOUND('',#736,.T.);
#736 = EDGE_LOOP('',(#737));
#737 = ORIENTED_EDGE('',*,*,#738,.T.);
#738 = EDGE_CURVE('',#739,#739,#741,.T.);
#739 = VERTEX_POINT('',#740);
#740 = CARTESIAN_POINT('',(57.7,-122.05,1.51));
#741 = CIRCLE('',#742,0.25);
#742 = AXIS2_PLACEMENT_3D('',#743,#744,#745);
#743 = CARTESIAN_POINT('',(57.7,-121.8,1.51));
#744 = DIRECTION('',(-0.,0.,-1.));
#745 = DIRECTION('',(-0.,-1.,0.));
#746 = FACE_BOUND('',#747,.T.);
#747 = EDGE_LOOP('',(#748));
#748 = ORIENTED_EDGE('',*,*,#749,.T.);
#749 = EDGE_CURVE('',#750,#750,#752,.T.);
#750 = VERTEX_POINT('',#751);
#751 = CARTESIAN_POINT('',(57.7,-119.95,1.51));
#752 = CIRCLE('',#753,0.25);
#753 = AXIS2_PLACEMENT_3D('',#754,#755,#756);
#754 = CARTESIAN_POINT('',(57.7,-119.7,1.51));
#755 = DIRECTION('',(-0.,0.,-1.));
#756 = DIRECTION('',(-0.,-1.,0.));
#757 = FACE_BOUND('',#758,.T.);
#758 = EDGE_LOOP('',(#759));
#759 = ORIENTED_EDGE('',*,*,#760,.T.);
#760 = EDGE_CURVE('',#761,#761,#763,.T.);
#761 = VERTEX_POINT('',#762);
#762 = CARTESIAN_POINT('',(57.7,-117.85,1.51));
#763 = CIRCLE('',#764,0.25);
#764 = AXIS2_PLACEMENT_3D('',#765,#766,#767);
#765 = CARTESIAN_POINT('',(57.7,-117.6,1.51));
#766 = DIRECTION('',(-0.,0.,-1.));
#767 = DIRECTION('',(-0.,-1.,0.));
#768 = FACE_BOUND('',#769,.T.);
#769 = EDGE_LOOP('',(#770));
#770 = ORIENTED_EDGE('',*,*,#771,.T.);
#771 = EDGE_CURVE('',#772,#772,#774,.T.);
#772 = VERTEX_POINT('',#773);
#773 = CARTESIAN_POINT('',(58.5,-108.8,1.51));
#774 = CIRCLE('',#775,1.1);
#775 = AXIS2_PLACEMENT_3D('',#776,#777,#778);
#776 = CARTESIAN_POINT('',(58.5,-107.7,1.51));
#777 = DIRECTION('',(-0.,0.,-1.));
#778 = DIRECTION('',(-0.,-1.,0.));
#779 = FACE_BOUND('',#780,.T.);
#780 = EDGE_LOOP('',(#781));
#781 = ORIENTED_EDGE('',*,*,#782,.T.);
#782 = EDGE_CURVE('',#783,#783,#785,.T.);
#783 = VERTEX_POINT('',#784);
#784 = CARTESIAN_POINT('',(61.8,-108.45,1.51));
#785 = CIRCLE('',#786,0.25);
#786 = AXIS2_PLACEMENT_3D('',#787,#788,#789);
#787 = CARTESIAN_POINT('',(61.8,-108.2,1.51));
#788 = DIRECTION('',(-0.,0.,-1.));
#789 = DIRECTION('',(-0.,-1.,0.));
#790 = FACE_BOUND('',#791,.T.);
#791 = EDGE_LOOP('',(#792));
#792 = ORIENTED_EDGE('',*,*,#793,.T.);
#793 = EDGE_CURVE('',#794,#794,#796,.T.);
#794 = VERTEX_POINT('',#795);
#795 = CARTESIAN_POINT('',(64.85,-108.55,1.51));
#796 = CIRCLE('',#797,0.25);
#797 = AXIS2_PLACEMENT_3D('',#798,#799,#800);
#798 = CARTESIAN_POINT('',(64.85,-108.3,1.51));
#799 = DIRECTION('',(-0.,0.,-1.));
#800 = DIRECTION('',(-0.,-1.,0.));
#801 = FACE_BOUND('',#802,.T.);
#802 = EDGE_LOOP('',(#803));
#803 = ORIENTED_EDGE('',*,*,#804,.T.);
#804 = EDGE_CURVE('',#805,#805,#807,.T.);
#805 = VERTEX_POINT('',#806);
#806 = CARTESIAN_POINT('',(66.975,-108.55,1.51));
#807 = CIRCLE('',#808,0.25);
#808 = AXIS2_PLACEMENT_3D('',#809,#810,#811);
#809 = CARTESIAN_POINT('',(66.975,-108.3,1.51));
#810 = DIRECTION('',(-0.,0.,-1.));
#811 = DIRECTION('',(-0.,-1.,0.));
#812 = FACE_BOUND('',#813,.T.);
#813 = EDGE_LOOP('',(#814));
#814 = ORIENTED_EDGE('',*,*,#815,.T.);
#815 = EDGE_CURVE('',#816,#816,#818,.T.);
#816 = VERTEX_POINT('',#817);
#817 = CARTESIAN_POINT('',(69.1,-108.55,1.51));
#818 = CIRCLE('',#819,0.25);
#819 = AXIS2_PLACEMENT_3D('',#820,#821,#822);
#820 = CARTESIAN_POINT('',(69.1,-108.3,1.51));
#821 = DIRECTION('',(-0.,0.,-1.));
#822 = DIRECTION('',(-0.,-1.,0.));
#823 = FACE_BOUND('',#824,.T.);
#824 = EDGE_LOOP('',(#825));
#825 = ORIENTED_EDGE('',*,*,#826,.T.);
#826 = EDGE_CURVE('',#827,#827,#829,.T.);
#827 = VERTEX_POINT('',#828);
#828 = CARTESIAN_POINT('',(71.225,-108.55,1.51));
#829 = CIRCLE('',#830,0.25);
#830 = AXIS2_PLACEMENT_3D('',#831,#832,#833);
#831 = CARTESIAN_POINT('',(71.225,-108.3,1.51));
#832 = DIRECTION('',(-0.,0.,-1.));
#833 = DIRECTION('',(-0.,-1.,0.));
#834 = FACE_BOUND('',#835,.T.);
#835 = EDGE_LOOP('',(#836));
#836 = ORIENTED_EDGE('',*,*,#837,.T.);
#837 = EDGE_CURVE('',#838,#838,#840,.T.);
#838 = VERTEX_POINT('',#839);
#839 = CARTESIAN_POINT('',(73.35,-108.55,1.51));
#840 = CIRCLE('',#841,0.25);
#841 = AXIS2_PLACEMENT_3D('',#842,#843,#844);
#842 = CARTESIAN_POINT('',(73.35,-108.3,1.51));
#843 = DIRECTION('',(-0.,0.,-1.));
#844 = DIRECTION('',(-0.,-1.,0.));
#845 = FACE_BOUND('',#846,.T.);
#846 = EDGE_LOOP('',(#847));
#847 = ORIENTED_EDGE('',*,*,#848,.T.);
#848 = EDGE_CURVE('',#849,#849,#851,.T.);
#849 = VERTEX_POINT('',#850);
#850 = CARTESIAN_POINT('',(84.1,-108.8,1.51));
#851 = CIRCLE('',#852,1.1);
#852 = AXIS2_PLACEMENT_3D('',#853,#854,#855);
#853 = CARTESIAN_POINT('',(84.1,-107.7,1.51));
#854 = DIRECTION('',(-0.,0.,-1.));
#855 = DIRECTION('',(-0.,-1.,0.));
#856 = PLANE('',#857);
#857 = AXIS2_PLACEMENT_3D('',#858,#859,#860);
#858 = CARTESIAN_POINT('',(0.,0.,1.51));
#859 = DIRECTION('',(0.,0.,1.));
#860 = DIRECTION('',(1.,0.,-0.));
#861 = ADVANCED_FACE('',(#862),#873,.T.);
#862 = FACE_BOUND('',#863,.T.);
#863 = EDGE_LOOP('',(#864,#870,#871,#872));
#864 = ORIENTED_EDGE('',*,*,#865,.T.);
#865 = EDGE_CURVE('',#146,#507,#866,.T.);
#866 = LINE('',#867,#868);
#867 = CARTESIAN_POINT('',(56.3,-107.7,0.));
#868 = VECTOR('',#869,1.);
#869 = DIRECTION('',(0.,0.,1.));
#870 = ORIENTED_EDGE('',*,*,#506,.T.);
#871 = ORIENTED_EDGE('',*,*,#81,.F.);
#872 = ORIENTED_EDGE('',*,*,#145,.F.);
#873 = CYLINDRICAL_SURFACE('',#874,2.199999722119);
#874 = AXIS2_PLACEMENT_3D('',#875,#876,#877);
#875 = CARTESIAN_POINT('',(58.499999722119,-107.6999997221,0.));
#876 = DIRECTION('',(0.,0.,-1.));
#877 = DIRECTION('',(-1.,-1.263097616472E-07,-0.));
#878 = ADVANCED_FACE('',(#879),#890,.T.);
#879 = FACE_BOUND('',#880,.T.);
#880 = EDGE_LOOP('',(#881,#882,#883,#889));
#881 = ORIENTED_EDGE('',*,*,#121,.T.);
#882 = ORIENTED_EDGE('',*,*,#540,.T.);
#883 = ORIENTED_EDGE('',*,*,#884,.F.);
#884 = EDGE_CURVE('',#172,#533,#885,.T.);
#885 = LINE('',#886,#887);
#886 = CARTESIAN_POINT('',(84.1,-135.5,0.));
#887 = VECTOR('',#888,1.);
#888 = DIRECTION('',(0.,0.,1.));
#889 = ORIENTED_EDGE('',*,*,#179,.F.);
#890 = CYLINDRICAL_SURFACE('',#891,2.199999722119);
#891 = AXIS2_PLACEMENT_3D('',#892,#893,#894);
#892 = CARTESIAN_POINT('',(84.100000277881,-133.3000002778,0.));
#893 = DIRECTION('',(0.,0.,-1.));
#894 = DIRECTION('',(1.,1.263097487282E-07,0.));
#895 = ADVANCED_FACE('',(#896),#907,.T.);
#896 = FACE_BOUND('',#897,.T.);
#897 = EDGE_LOOP('',(#898,#904,#905,#906));
#898 = ORIENTED_EDGE('',*,*,#899,.T.);
#899 = EDGE_CURVE('',#155,#516,#900,.T.);
#900 = LINE('',#901,#902);
#901 = CARTESIAN_POINT('',(56.3,-133.3,0.));
#902 = VECTOR('',#903,1.);
#903 = DIRECTION('',(0.,0.,1.));
#904 = ORIENTED_EDGE('',*,*,#515,.T.);
#905 = ORIENTED_EDGE('',*,*,#865,.F.);
#906 = ORIENTED_EDGE('',*,*,#154,.F.);
#907 = PLANE('',#908);
#908 = AXIS2_PLACEMENT_3D('',#909,#910,#911);
#909 = CARTESIAN_POINT('',(56.3,-133.3,0.));
#910 = DIRECTION('',(-1.,0.,0.));
#911 = DIRECTION('',(0.,1.,0.));
#912 = ADVANCED_FACE('',(#913),#924,.T.);
#913 = FACE_BOUND('',#914,.T.);
#914 = EDGE_LOOP('',(#915,#916,#917,#923));
#915 = ORIENTED_EDGE('',*,*,#884,.T.);
#916 = ORIENTED_EDGE('',*,*,#532,.T.);
#917 = ORIENTED_EDGE('',*,*,#918,.F.);
#918 = EDGE_CURVE('',#163,#524,#919,.T.);
#919 = LINE('',#920,#921);
#920 = CARTESIAN_POINT('',(58.5,-135.5,0.));
#921 = VECTOR('',#922,1.);
#922 = DIRECTION('',(0.,0.,1.));
#923 = ORIENTED_EDGE('',*,*,#171,.F.);
#924 = PLANE('',#925);
#925 = AXIS2_PLACEMENT_3D('',#926,#927,#928);
#926 = CARTESIAN_POINT('',(84.1,-135.5,0.));
#927 = DIRECTION('',(0.,-1.,0.));
#928 = DIRECTION('',(-1.,0.,0.));
#929 = ADVANCED_FACE('',(#930),#936,.T.);
#930 = FACE_BOUND('',#931,.T.);
#931 = EDGE_LOOP('',(#932,#933,#934,#935));
#932 = ORIENTED_EDGE('',*,*,#918,.T.);
#933 = ORIENTED_EDGE('',*,*,#523,.T.);
#934 = ORIENTED_EDGE('',*,*,#899,.F.);
#935 = ORIENTED_EDGE('',*,*,#162,.F.);
#936 = CYLINDRICAL_SURFACE('',#937,2.199999722119);
#937 = AXIS2_PLACEMENT_3D('',#938,#939,#940);
#938 = CARTESIAN_POINT('',(58.499999722119,-133.3000002778,0.));
#939 = DIRECTION('',(0.,0.,-1.));
#940 = DIRECTION('',(1.263097551877E-07,-1.,0.));
#941 = ADVANCED_FACE('',(#942),#953,.F.);
#942 = FACE_BOUND('',#943,.T.);
#943 = EDGE_LOOP('',(#944,#945,#951,#952));
#944 = ORIENTED_EDGE('',*,*,#189,.T.);
#945 = ORIENTED_EDGE('',*,*,#946,.T.);
#946 = EDGE_CURVE('',#190,#551,#947,.T.);
#947 = LINE('',#948,#949);
#948 = CARTESIAN_POINT('',(58.5,-134.391877,-4.6E-02));
#949 = VECTOR('',#950,1.);
#950 = DIRECTION('',(0.,0.,1.));
#951 = ORIENTED_EDGE('',*,*,#550,.F.);
#952 = ORIENTED_EDGE('',*,*,#946,.F.);
#953 = CYLINDRICAL_SURFACE('',#954,1.1);
#954 = AXIS2_PLACEMENT_3D('',#955,#956,#957);
#955 = CARTESIAN_POINT('',(58.5,-133.291877,-4.6E-02));
#956 = DIRECTION('',(-0.,-0.,-1.));
#957 = DIRECTION('',(-0.,-1.,0.));
#958 = ADVANCED_FACE('',(#959),#975,.F.);
#959 = FACE_BOUND('',#960,.T.);
#960 = EDGE_LOOP('',(#961,#962,#968,#969));
#961 = ORIENTED_EDGE('',*,*,#200,.T.);
#962 = ORIENTED_EDGE('',*,*,#963,.T.);
#963 = EDGE_CURVE('',#203,#564,#964,.T.);
#964 = LINE('',#965,#966);
#965 = CARTESIAN_POINT('',(61.52,-132.561877,-4.6E-02));
#966 = VECTOR('',#967,1.);
#967 = DIRECTION('',(0.,0.,1.));
#968 = ORIENTED_EDGE('',*,*,#561,.F.);
#969 = ORIENTED_EDGE('',*,*,#970,.F.);
#970 = EDGE_CURVE('',#201,#562,#971,.T.);
#971 = LINE('',#972,#973);
#972 = CARTESIAN_POINT('',(62.12,-132.561877,-4.6E-02));
#973 = VECTOR('',#974,1.);
#974 = DIRECTION('',(0.,0.,1.));
#975 = CYLINDRICAL_SURFACE('',#976,0.3);
#976 = AXIS2_PLACEMENT_3D('',#977,#978,#979);
#977 = CARTESIAN_POINT('',(61.82,-132.561877,-4.6E-02));
#978 = DIRECTION('',(-0.,-0.,-1.));
#979 = DIRECTION('',(-1.,0.,-0.));
#980 = ADVANCED_FACE('',(#981),#992,.T.);
#981 = FACE_BOUND('',#982,.T.);
#982 = EDGE_LOOP('',(#983,#984,#985,#986));
#983 = ORIENTED_EDGE('',*,*,#228,.T.);
#984 = ORIENTED_EDGE('',*,*,#970,.T.);
#985 = ORIENTED_EDGE('',*,*,#589,.F.);
#986 = ORIENTED_EDGE('',*,*,#987,.F.);
#987 = EDGE_CURVE('',#220,#581,#988,.T.);
#988 = LINE('',#989,#990);
#989 = CARTESIAN_POINT('',(62.12,-131.961877,-4.6E-02));
#990 = VECTOR('',#991,1.);
#991 = DIRECTION('',(0.,0.,1.));
#992 = PLANE('',#993);
#993 = AXIS2_PLACEMENT_3D('',#994,#995,#996);
#994 = CARTESIAN_POINT('',(62.12,-132.561877,-4.6E-02));
#995 = DIRECTION('',(-1.,0.,0.));
#996 = DIRECTION('',(0.,1.,0.));
#997 = ADVANCED_FACE('',(#998),#1009,.F.);
#998 = FACE_BOUND('',#999,.T.);
#999 = EDGE_LOOP('',(#1000,#1001,#1002,#1003));
#1000 = ORIENTED_EDGE('',*,*,#219,.T.);
#1001 = ORIENTED_EDGE('',*,*,#987,.T.);
#1002 = ORIENTED_EDGE('',*,*,#580,.F.);
#1003 = ORIENTED_EDGE('',*,*,#1004,.F.);
#1004 = EDGE_CURVE('',#212,#573,#1005,.T.);
#1005 = LINE('',#1006,#1007);
#1006 = CARTESIAN_POINT('',(61.52,-131.961877,-4.6E-02));
#1007 = VECTOR('',#1008,1.);
#1008 = DIRECTION('',(0.,0.,1.));
#1009 = CYLINDRICAL_SURFACE('',#1010,0.3);
#1010 = AXIS2_PLACEMENT_3D('',#1011,#1012,#1013);
#1011 = CARTESIAN_POINT('',(61.82,-131.961877,-4.6E-02));
#1012 = DIRECTION('',(-0.,-0.,-1.));
#1013 = DIRECTION('',(1.,0.,-0.));
#1014 = ADVANCED_FACE('',(#1015),#1021,.T.);
#1015 = FACE_BOUND('',#1016,.T.);
#1016 = EDGE_LOOP('',(#1017,#1018,#1019,#1020));
#1017 = ORIENTED_EDGE('',*,*,#211,.T.);
#1018 = ORIENTED_EDGE('',*,*,#1004,.T.);
#1019 = ORIENTED_EDGE('',*,*,#572,.F.);
#1020 = ORIENTED_EDGE('',*,*,#963,.F.);
#1021 = PLANE('',#1022);
#1022 = AXIS2_PLACEMENT_3D('',#1023,#1024,#1025);
#1023 = CARTESIAN_POINT('',(61.52,-131.961877,-4.6E-02));
#1024 = DIRECTION('',(1.,0.,-0.));
#1025 = DIRECTION('',(0.,-1.,0.));
#1026 = ADVANCED_FACE('',(#1027),#1043,.F.);
#1027 = FACE_BOUND('',#1028,.T.);
#1028 = EDGE_LOOP('',(#1029,#1030,#1036,#1037));
#1029 = ORIENTED_EDGE('',*,*,#236,.T.);
#1030 = ORIENTED_EDGE('',*,*,#1031,.T.);
#1031 = EDGE_CURVE('',#239,#600,#1032,.T.);
#1032 = LINE('',#1033,#1034);
#1033 = CARTESIAN_POINT('',(61.52,-128.631877,-4.6E-02));
#1034 = VECTOR('',#1035,1.);
#1035 = DIRECTION('',(0.,0.,1.));
#1036 = ORIENTED_EDGE('',*,*,#597,.F.);
#1037 = ORIENTED_EDGE('',*,*,#1038,.F.);
#1038 = EDGE_CURVE('',#237,#598,#1039,.T.);
#1039 = LINE('',#1040,#1041);
#1040 = CARTESIAN_POINT('',(62.12,-128.631877,-4.6E-02));
#1041 = VECTOR('',#1042,1.);
#1042 = DIRECTION('',(0.,0.,1.));
#1043 = CYLINDRICAL_SURFACE('',#1044,0.3);
#1044 = AXIS2_PLACEMENT_3D('',#1045,#1046,#1047);
#1045 = CARTESIAN_POINT('',(61.82,-128.631877,-4.6E-02));
#1046 = DIRECTION('',(-0.,-0.,-1.));
#1047 = DIRECTION('',(-1.,0.,-0.));
#1048 = ADVANCED_FACE('',(#1049),#1060,.T.);
#1049 = FACE_BOUND('',#1050,.T.);
#1050 = EDGE_LOOP('',(#1051,#1052,#1053,#1054));
#1051 = ORIENTED_EDGE('',*,*,#264,.T.);
#1052 = ORIENTED_EDGE('',*,*,#1038,.T.);
#1053 = ORIENTED_EDGE('',*,*,#625,.F.);
#1054 = ORIENTED_EDGE('',*,*,#1055,.F.);
#1055 = EDGE_CURVE('',#256,#617,#1056,.T.);
#1056 = LINE('',#1057,#1058);
#1057 = CARTESIAN_POINT('',(62.12,-127.531877,-4.6E-02));
#1058 = VECTOR('',#1059,1.);
#1059 = DIRECTION('',(0.,0.,1.));
#1060 = PLANE('',#1061);
#1061 = AXIS2_PLACEMENT_3D('',#1062,#1063,#1064);
#1062 = CARTESIAN_POINT('',(62.12,-128.631877,-4.6E-02));
#1063 = DIRECTION('',(-1.,0.,0.));
#1064 = DIRECTION('',(0.,1.,0.));
#1065 = ADVANCED_FACE('',(#1066),#1077,.F.);
#1066 = FACE_BOUND('',#1067,.T.);
#1067 = EDGE_LOOP('',(#1068,#1069,#1070,#1071));
#1068 = ORIENTED_EDGE('',*,*,#255,.T.);
#1069 = ORIENTED_EDGE('',*,*,#1055,.T.);
#1070 = ORIENTED_EDGE('',*,*,#616,.F.);
#1071 = ORIENTED_EDGE('',*,*,#1072,.F.);
#1072 = EDGE_CURVE('',#248,#609,#1073,.T.);
#1073 = LINE('',#1074,#1075);
#1074 = CARTESIAN_POINT('',(61.52,-127.531877,-4.6E-02));
#1075 = VECTOR('',#1076,1.);
#1076 = DIRECTION('',(0.,0.,1.));
#1077 = CYLINDRICAL_SURFACE('',#1078,0.3);
#1078 = AXIS2_PLACEMENT_3D('',#1079,#1080,#1081);
#1079 = CARTESIAN_POINT('',(61.82,-127.531877,-4.6E-02));
#1080 = DIRECTION('',(-0.,-0.,-1.));
#1081 = DIRECTION('',(1.,4.736951571734E-14,-0.));
#1082 = ADVANCED_FACE('',(#1083),#1089,.T.);
#1083 = FACE_BOUND('',#1084,.T.);
#1084 = EDGE_LOOP('',(#1085,#1086,#1087,#1088));
#1085 = ORIENTED_EDGE('',*,*,#247,.T.);
#1086 = ORIENTED_EDGE('',*,*,#1072,.T.);
#1087 = ORIENTED_EDGE('',*,*,#608,.F.);
#1088 = ORIENTED_EDGE('',*,*,#1031,.F.);
#1089 = PLANE('',#1090);
#1090 = AXIS2_PLACEMENT_3D('',#1091,#1092,#1093);
#1091 = CARTESIAN_POINT('',(61.52,-127.531877,-4.6E-02));
#1092 = DIRECTION('',(1.,0.,-0.));
#1093 = DIRECTION('',(0.,-1.,0.));
#1094 = ADVANCED_FACE('',(#1095),#1106,.F.);
#1095 = FACE_BOUND('',#1096,.T.);
#1096 = EDGE_LOOP('',(#1097,#1098,#1104,#1105));
#1097 = ORIENTED_EDGE('',*,*,#272,.T.);
#1098 = ORIENTED_EDGE('',*,*,#1099,.T.);
#1099 = EDGE_CURVE('',#273,#634,#1100,.T.);
#1100 = LINE('',#1101,#1102);
#1101 = CARTESIAN_POINT('',(63.25,-128.936877,-4.6E-02));
#1102 = VECTOR('',#1103,1.);
#1103 = DIRECTION('',(0.,0.,1.));
#1104 = ORIENTED_EDGE('',*,*,#633,.F.);
#1105 = ORIENTED_EDGE('',*,*,#1099,.F.);
#1106 = CYLINDRICAL_SURFACE('',#1107,0.325);
#1107 = AXIS2_PLACEMENT_3D('',#1108,#1109,#1110);
#1108 = CARTESIAN_POINT('',(63.25,-128.611877,-4.6E-02));
#1109 = DIRECTION('',(-0.,-0.,-1.));
#1110 = DIRECTION('',(-0.,-1.,0.));
#1111 = ADVANCED_FACE('',(#1112),#1128,.F.);
#1112 = FACE_BOUND('',#1113,.T.);
#1113 = EDGE_LOOP('',(#1114,#1115,#1121,#1122));
#1114 = ORIENTED_EDGE('',*,*,#283,.T.);
#1115 = ORIENTED_EDGE('',*,*,#1116,.T.);
#1116 = EDGE_CURVE('',#286,#647,#1117,.T.);
#1117 = LINE('',#1118,#1119);
#1118 = CARTESIAN_POINT('',(70.16,-132.561877,-4.6E-02));
#1119 = VECTOR('',#1120,1.);
#1120 = DIRECTION('',(0.,0.,1.));
#1121 = ORIENTED_EDGE('',*,*,#644,.F.);
#1122 = ORIENTED_EDGE('',*,*,#1123,.F.);
#1123 = EDGE_CURVE('',#284,#645,#1124,.T.);
#1124 = LINE('',#1125,#1126);
#1125 = CARTESIAN_POINT('',(70.76,-132.561877,-4.6E-02));
#1126 = VECTOR('',#1127,1.);
#1127 = DIRECTION('',(0.,0.,1.));
#1128 = CYLINDRICAL_SURFACE('',#1129,0.3);
#1129 = AXIS2_PLACEMENT_3D('',#1130,#1131,#1132);
#1130 = CARTESIAN_POINT('',(70.46,-132.561877,-4.6E-02));
#1131 = DIRECTION('',(-0.,-0.,-1.));
#1132 = DIRECTION('',(-1.,0.,-0.));
#1133 = ADVANCED_FACE('',(#1134),#1145,.T.);
#1134 = FACE_BOUND('',#1135,.T.);
#1135 = EDGE_LOOP('',(#1136,#1137,#1138,#1139));
#1136 = ORIENTED_EDGE('',*,*,#311,.T.);
#1137 = ORIENTED_EDGE('',*,*,#1123,.T.);
#1138 = ORIENTED_EDGE('',*,*,#672,.F.);
#1139 = ORIENTED_EDGE('',*,*,#1140,.F.);
#1140 = EDGE_CURVE('',#303,#664,#1141,.T.);
#1141 = LINE('',#1142,#1143);
#1142 = CARTESIAN_POINT('',(70.76,-131.961877,-4.6E-02));
#1143 = VECTOR('',#1144,1.);
#1144 = DIRECTION('',(0.,0.,1.));
#1145 = PLANE('',#1146);
#1146 = AXIS2_PLACEMENT_3D('',#1147,#1148,#1149);
#1147 = CARTESIAN_POINT('',(70.76,-132.561877,-4.6E-02));
#1148 = DIRECTION('',(-1.,0.,0.));
#1149 = DIRECTION('',(0.,1.,0.));
#1150 = ADVANCED_FACE('',(#1151),#1162,.F.);
#1151 = FACE_BOUND('',#1152,.T.);
#1152 = EDGE_LOOP('',(#1153,#1154,#1155,#1156));
#1153 = ORIENTED_EDGE('',*,*,#302,.T.);
#1154 = ORIENTED_EDGE('',*,*,#1140,.T.);
#1155 = ORIENTED_EDGE('',*,*,#663,.F.);
#1156 = ORIENTED_EDGE('',*,*,#1157,.F.);
#1157 = EDGE_CURVE('',#295,#656,#1158,.T.);
#1158 = LINE('',#1159,#1160);
#1159 = CARTESIAN_POINT('',(70.16,-131.961877,-4.6E-02));
#1160 = VECTOR('',#1161,1.);
#1161 = DIRECTION('',(0.,0.,1.));
#1162 = CYLINDRICAL_SURFACE('',#1163,0.3);
#1163 = AXIS2_PLACEMENT_3D('',#1164,#1165,#1166);
#1164 = CARTESIAN_POINT('',(70.46,-131.961877,-4.6E-02));
#1165 = DIRECTION('',(-0.,-0.,-1.));
#1166 = DIRECTION('',(1.,0.,-0.));
#1167 = ADVANCED_FACE('',(#1168),#1174,.T.);
#1168 = FACE_BOUND('',#1169,.T.);
#1169 = EDGE_LOOP('',(#1170,#1171,#1172,#1173));
#1170 = ORIENTED_EDGE('',*,*,#294,.T.);
#1171 = ORIENTED_EDGE('',*,*,#1157,.T.);
#1172 = ORIENTED_EDGE('',*,*,#655,.F.);
#1173 = ORIENTED_EDGE('',*,*,#1116,.F.);
#1174 = PLANE('',#1175);
#1175 = AXIS2_PLACEMENT_3D('',#1176,#1177,#1178);
#1176 = CARTESIAN_POINT('',(70.16,-131.961877,-4.6E-02));
#1177 = DIRECTION('',(1.,0.,-0.));
#1178 = DIRECTION('',(0.,-1.,0.));
#1179 = ADVANCED_FACE('',(#1180),#1191,.F.);
#1180 = FACE_BOUND('',#1181,.T.);
#1181 = EDGE_LOOP('',(#1182,#1183,#1189,#1190));
#1182 = ORIENTED_EDGE('',*,*,#319,.T.);
#1183 = ORIENTED_EDGE('',*,*,#1184,.T.);
#1184 = EDGE_CURVE('',#320,#681,#1185,.T.);
#1185 = LINE('',#1186,#1187);
#1186 = CARTESIAN_POINT('',(69.03,-128.936877,-4.6E-02));
#1187 = VECTOR('',#1188,1.);
#1188 = DIRECTION('',(0.,0.,1.));
#1189 = ORIENTED_EDGE('',*,*,#680,.F.);
#1190 = ORIENTED_EDGE('',*,*,#1184,.F.);
#1191 = CYLINDRICAL_SURFACE('',#1192,0.325);
#1192 = AXIS2_PLACEMENT_3D('',#1193,#1194,#1195);
#1193 = CARTESIAN_POINT('',(69.03,-128.611877,-4.6E-02));
#1194 = DIRECTION('',(-0.,-0.,-1.));
#1195 = DIRECTION('',(-0.,-1.,0.));
#1196 = ADVANCED_FACE('',(#1197),#1213,.F.);
#1197 = FACE_BOUND('',#1198,.T.);
#1198 = EDGE_LOOP('',(#1199,#1200,#1206,#1207));
#1199 = ORIENTED_EDGE('',*,*,#330,.T.);
#1200 = ORIENTED_EDGE('',*,*,#1201,.T.);
#1201 = EDGE_CURVE('',#333,#694,#1202,.T.);
#1202 = LINE('',#1203,#1204);
#1203 = CARTESIAN_POINT('',(70.16,-128.631877,-4.6E-02));
#1204 = VECTOR('',#1205,1.);
#1205 = DIRECTION('',(0.,0.,1.));
#1206 = ORIENTED_EDGE('',*,*,#691,.F.);
#1207 = ORIENTED_EDGE('',*,*,#1208,.F.);
#1208 = EDGE_CURVE('',#331,#692,#1209,.T.);
#1209 = LINE('',#1210,#1211);
#1210 = CARTESIAN_POINT('',(70.76,-128.631877,-4.6E-02));
#1211 = VECTOR('',#1212,1.);
#1212 = DIRECTION('',(0.,0.,1.));
#1213 = CYLINDRICAL_SURFACE('',#1214,0.3);
#1214 = AXIS2_PLACEMENT_3D('',#1215,#1216,#1217);
#1215 = CARTESIAN_POINT('',(70.46,-128.631877,-4.6E-02));
#1216 = DIRECTION('',(-0.,-0.,-1.));
#1217 = DIRECTION('',(-1.,0.,-0.));
#1218 = ADVANCED_FACE('',(#1219),#1230,.T.);
#1219 = FACE_BOUND('',#1220,.T.);
#1220 = EDGE_LOOP('',(#1221,#1222,#1223,#1224));
#1221 = ORIENTED_EDGE('',*,*,#358,.T.);
#1222 = ORIENTED_EDGE('',*,*,#1208,.T.);
#1223 = ORIENTED_EDGE('',*,*,#719,.F.);
#1224 = ORIENTED_EDGE('',*,*,#1225,.F.);
#1225 = EDGE_CURVE('',#350,#711,#1226,.T.);
#1226 = LINE('',#1227,#1228);
#1227 = CARTESIAN_POINT('',(70.76,-127.531877,-4.6E-02));
#1228 = VECTOR('',#1229,1.);
#1229 = DIRECTION('',(0.,0.,1.));
#1230 = PLANE('',#1231);
#1231 = AXIS2_PLACEMENT_3D('',#1232,#1233,#1234);
#1232 = CARTESIAN_POINT('',(70.76,-128.631877,-4.6E-02));
#1233 = DIRECTION('',(-1.,0.,0.));
#1234 = DIRECTION('',(0.,1.,0.));
#1235 = ADVANCED_FACE('',(#1236),#1247,.F.);
#1236 = FACE_BOUND('',#1237,.T.);
#1237 = EDGE_LOOP('',(#1238,#1239,#1240,#1241));
#1238 = ORIENTED_EDGE('',*,*,#349,.T.);
#1239 = ORIENTED_EDGE('',*,*,#1225,.T.);
#1240 = ORIENTED_EDGE('',*,*,#710,.F.);
#1241 = ORIENTED_EDGE('',*,*,#1242,.F.);
#1242 = EDGE_CURVE('',#342,#703,#1243,.T.);
#1243 = LINE('',#1244,#1245);
#1244 = CARTESIAN_POINT('',(70.16,-127.531877,-4.6E-02));
#1245 = VECTOR('',#1246,1.);
#1246 = DIRECTION('',(0.,0.,1.));
#1247 = CYLINDRICAL_SURFACE('',#1248,0.3);
#1248 = AXIS2_PLACEMENT_3D('',#1249,#1250,#1251);
#1249 = CARTESIAN_POINT('',(70.46,-127.531877,-4.6E-02));
#1250 = DIRECTION('',(-0.,-0.,-1.));
#1251 = DIRECTION('',(1.,4.736951571734E-14,-0.));
#1252 = ADVANCED_FACE('',(#1253),#1259,.T.);
#1253 = FACE_BOUND('',#1254,.T.);
#1254 = EDGE_LOOP('',(#1255,#1256,#1257,#1258));
#1255 = ORIENTED_EDGE('',*,*,#341,.T.);
#1256 = ORIENTED_EDGE('',*,*,#1242,.T.);
#1257 = ORIENTED_EDGE('',*,*,#702,.F.);
#1258 = ORIENTED_EDGE('',*,*,#1201,.F.);
#1259 = PLANE('',#1260);
#1260 = AXIS2_PLACEMENT_3D('',#1261,#1262,#1263);
#1261 = CARTESIAN_POINT('',(70.16,-127.531877,-4.6E-02));
#1262 = DIRECTION('',(1.,0.,-0.));
#1263 = DIRECTION('',(0.,-1.,0.));
#1264 = ADVANCED_FACE('',(#1265),#1276,.F.);
#1265 = FACE_BOUND('',#1266,.T.);
#1266 = EDGE_LOOP('',(#1267,#1268,#1274,#1275));
#1267 = ORIENTED_EDGE('',*,*,#366,.T.);
#1268 = ORIENTED_EDGE('',*,*,#1269,.T.);
#1269 = EDGE_CURVE('',#367,#728,#1270,.T.);
#1270 = LINE('',#1271,#1272);
#1271 = CARTESIAN_POINT('',(57.7,-124.15,-4.6E-02));
#1272 = VECTOR('',#1273,1.);
#1273 = DIRECTION('',(0.,0.,1.));
#1274 = ORIENTED_EDGE('',*,*,#727,.F.);
#1275 = ORIENTED_EDGE('',*,*,#1269,.F.);
#1276 = CYLINDRICAL_SURFACE('',#1277,0.25);
#1277 = AXIS2_PLACEMENT_3D('',#1278,#1279,#1280);
#1278 = CARTESIAN_POINT('',(57.7,-123.9,-4.6E-02));
#1279 = DIRECTION('',(-0.,-0.,-1.));
#1280 = DIRECTION('',(-0.,-1.,0.));
#1281 = ADVANCED_FACE('',(#1282),#1293,.F.);
#1282 = FACE_BOUND('',#1283,.T.);
#1283 = EDGE_LOOP('',(#1284,#1285,#1291,#1292));
#1284 = ORIENTED_EDGE('',*,*,#377,.T.);
#1285 = ORIENTED_EDGE('',*,*,#1286,.T.);
#1286 = EDGE_CURVE('',#378,#739,#1287,.T.);
#1287 = LINE('',#1288,#1289);
#1288 = CARTESIAN_POINT('',(57.7,-122.05,-4.6E-02));
#1289 = VECTOR('',#1290,1.);
#1290 = DIRECTION('',(0.,0.,1.));
#1291 = ORIENTED_EDGE('',*,*,#738,.F.);
#1292 = ORIENTED_EDGE('',*,*,#1286,.F.);
#1293 = CYLINDRICAL_SURFACE('',#1294,0.25);
#1294 = AXIS2_PLACEMENT_3D('',#1295,#1296,#1297);
#1295 = CARTESIAN_POINT('',(57.7,-121.8,-4.6E-02));
#1296 = DIRECTION('',(-0.,-0.,-1.));
#1297 = DIRECTION('',(-0.,-1.,0.));
#1298 = ADVANCED_FACE('',(#1299),#1310,.F.);
#1299 = FACE_BOUND('',#1300,.T.);
#1300 = EDGE_LOOP('',(#1301,#1302,#1308,#1309));
#1301 = ORIENTED_EDGE('',*,*,#388,.T.);
#1302 = ORIENTED_EDGE('',*,*,#1303,.T.);
#1303 = EDGE_CURVE('',#389,#750,#1304,.T.);
#1304 = LINE('',#1305,#1306);
#1305 = CARTESIAN_POINT('',(57.7,-119.95,-4.6E-02));
#1306 = VECTOR('',#1307,1.);
#1307 = DIRECTION('',(0.,0.,1.));
#1308 = ORIENTED_EDGE('',*,*,#749,.F.);
#1309 = ORIENTED_EDGE('',*,*,#1303,.F.);
#1310 = CYLINDRICAL_SURFACE('',#1311,0.25);
#1311 = AXIS2_PLACEMENT_3D('',#1312,#1313,#1314);
#1312 = CARTESIAN_POINT('',(57.7,-119.7,-4.6E-02));
#1313 = DIRECTION('',(-0.,-0.,-1.));
#1314 = DIRECTION('',(-0.,-1.,0.));
#1315 = ADVANCED_FACE('',(#1316),#1327,.F.);
#1316 = FACE_BOUND('',#1317,.T.);
#1317 = EDGE_LOOP('',(#1318,#1319,#1325,#1326));
#1318 = ORIENTED_EDGE('',*,*,#399,.T.);
#1319 = ORIENTED_EDGE('',*,*,#1320,.T.);
#1320 = EDGE_CURVE('',#400,#761,#1321,.T.);
#1321 = LINE('',#1322,#1323);
#1322 = CARTESIAN_POINT('',(57.7,-117.85,-4.6E-02));
#1323 = VECTOR('',#1324,1.);
#1324 = DIRECTION('',(0.,0.,1.));
#1325 = ORIENTED_EDGE('',*,*,#760,.F.);
#1326 = ORIENTED_EDGE('',*,*,#1320,.F.);
#1327 = CYLINDRICAL_SURFACE('',#1328,0.25);
#1328 = AXIS2_PLACEMENT_3D('',#1329,#1330,#1331);
#1329 = CARTESIAN_POINT('',(57.7,-117.6,-4.6E-02));
#1330 = DIRECTION('',(-0.,-0.,-1.));
#1331 = DIRECTION('',(-0.,-1.,0.));
#1332 = ADVANCED_FACE('',(#1333),#1344,.F.);
#1333 = FACE_BOUND('',#1334,.T.);
#1334 = EDGE_LOOP('',(#1335,#1336,#1342,#1343));
#1335 = ORIENTED_EDGE('',*,*,#410,.T.);
#1336 = ORIENTED_EDGE('',*,*,#1337,.T.);
#1337 = EDGE_CURVE('',#411,#772,#1338,.T.);
#1338 = LINE('',#1339,#1340);
#1339 = CARTESIAN_POINT('',(58.5,-108.8,-4.6E-02));
#1340 = VECTOR('',#1341,1.);
#1341 = DIRECTION('',(0.,0.,1.));
#1342 = ORIENTED_EDGE('',*,*,#771,.F.);
#1343 = ORIENTED_EDGE('',*,*,#1337,.F.);
#1344 = CYLINDRICAL_SURFACE('',#1345,1.1);
#1345 = AXIS2_PLACEMENT_3D('',#1346,#1347,#1348);
#1346 = CARTESIAN_POINT('',(58.5,-107.7,-4.6E-02));
#1347 = DIRECTION('',(-0.,-0.,-1.));
#1348 = DIRECTION('',(-0.,-1.,0.));
#1349 = ADVANCED_FACE('',(#1350),#1361,.F.);
#1350 = FACE_BOUND('',#1351,.T.);
#1351 = EDGE_LOOP('',(#1352,#1353,#1359,#1360));
#1352 = ORIENTED_EDGE('',*,*,#421,.T.);
#1353 = ORIENTED_EDGE('',*,*,#1354,.T.);
#1354 = EDGE_CURVE('',#422,#783,#1355,.T.);
#1355 = LINE('',#1356,#1357);
#1356 = CARTESIAN_POINT('',(61.8,-108.45,-4.6E-02));
#1357 = VECTOR('',#1358,1.);
#1358 = DIRECTION('',(0.,0.,1.));
#1359 = ORIENTED_EDGE('',*,*,#782,.F.);
#1360 = ORIENTED_EDGE('',*,*,#1354,.F.);
#1361 = CYLINDRICAL_SURFACE('',#1362,0.25);
#1362 = AXIS2_PLACEMENT_3D('',#1363,#1364,#1365);
#1363 = CARTESIAN_POINT('',(61.8,-108.2,-4.6E-02));
#1364 = DIRECTION('',(-0.,-0.,-1.));
#1365 = DIRECTION('',(-0.,-1.,0.));
#1366 = ADVANCED_FACE('',(#1367),#1378,.F.);
#1367 = FACE_BOUND('',#1368,.T.);
#1368 = EDGE_LOOP('',(#1369,#1370,#1376,#1377));
#1369 = ORIENTED_EDGE('',*,*,#432,.T.);
#1370 = ORIENTED_EDGE('',*,*,#1371,.T.);
#1371 = EDGE_CURVE('',#433,#794,#1372,.T.);
#1372 = LINE('',#1373,#1374);
#1373 = CARTESIAN_POINT('',(64.85,-108.55,-4.6E-02));
#1374 = VECTOR('',#1375,1.);
#1375 = DIRECTION('',(0.,0.,1.));
#1376 = ORIENTED_EDGE('',*,*,#793,.F.);
#1377 = ORIENTED_EDGE('',*,*,#1371,.F.);
#1378 = CYLINDRICAL_SURFACE('',#1379,0.25);
#1379 = AXIS2_PLACEMENT_3D('',#1380,#1381,#1382);
#1380 = CARTESIAN_POINT('',(64.85,-108.3,-4.6E-02));
#1381 = DIRECTION('',(-0.,-0.,-1.));
#1382 = DIRECTION('',(-0.,-1.,0.));
#1383 = ADVANCED_FACE('',(#1384),#1395,.F.);
#1384 = FACE_BOUND('',#1385,.T.);
#1385 = EDGE_LOOP('',(#1386,#1387,#1393,#1394));
#1386 = ORIENTED_EDGE('',*,*,#443,.T.);
#1387 = ORIENTED_EDGE('',*,*,#1388,.T.);
#1388 = EDGE_CURVE('',#444,#805,#1389,.T.);
#1389 = LINE('',#1390,#1391);
#1390 = CARTESIAN_POINT('',(66.975,-108.55,-4.6E-02));
#1391 = VECTOR('',#1392,1.);
#1392 = DIRECTION('',(0.,0.,1.));
#1393 = ORIENTED_EDGE('',*,*,#804,.F.);
#1394 = ORIENTED_EDGE('',*,*,#1388,.F.);
#1395 = CYLINDRICAL_SURFACE('',#1396,0.25);
#1396 = AXIS2_PLACEMENT_3D('',#1397,#1398,#1399);
#1397 = CARTESIAN_POINT('',(66.975,-108.3,-4.6E-02));
#1398 = DIRECTION('',(-0.,-0.,-1.));
#1399 = DIRECTION('',(-0.,-1.,0.));
#1400 = ADVANCED_FACE('',(#1401),#1412,.F.);
#1401 = FACE_BOUND('',#1402,.T.);
#1402 = EDGE_LOOP('',(#1403,#1404,#1410,#1411));
#1403 = ORIENTED_EDGE('',*,*,#454,.T.);
#1404 = ORIENTED_EDGE('',*,*,#1405,.T.);
#1405 = EDGE_CURVE('',#455,#816,#1406,.T.);
#1406 = LINE('',#1407,#1408);
#1407 = CARTESIAN_POINT('',(69.1,-108.55,-4.6E-02));
#1408 = VECTOR('',#1409,1.);
#1409 = DIRECTION('',(0.,0.,1.));
#1410 = ORIENTED_EDGE('',*,*,#815,.F.);
#1411 = ORIENTED_EDGE('',*,*,#1405,.F.);
#1412 = CYLINDRICAL_SURFACE('',#1413,0.25);
#1413 = AXIS2_PLACEMENT_3D('',#1414,#1415,#1416);
#1414 = CARTESIAN_POINT('',(69.1,-108.3,-4.6E-02));
#1415 = DIRECTION('',(-0.,-0.,-1.));
#1416 = DIRECTION('',(-0.,-1.,0.));
#1417 = ADVANCED_FACE('',(#1418),#1429,.F.);
#1418 = FACE_BOUND('',#1419,.T.);
#1419 = EDGE_LOOP('',(#1420,#1421,#1427,#1428));
#1420 = ORIENTED_EDGE('',*,*,#465,.T.);
#1421 = ORIENTED_EDGE('',*,*,#1422,.T.);
#1422 = EDGE_CURVE('',#466,#827,#1423,.T.);
#1423 = LINE('',#1424,#1425);
#1424 = CARTESIAN_POINT('',(71.225,-108.55,-4.6E-02));
#1425 = VECTOR('',#1426,1.);
#1426 = DIRECTION('',(0.,0.,1.));
#1427 = ORIENTED_EDGE('',*,*,#826,.F.);
#1428 = ORIENTED_EDGE('',*,*,#1422,.F.);
#1429 = CYLINDRICAL_SURFACE('',#1430,0.25);
#1430 = AXIS2_PLACEMENT_3D('',#1431,#1432,#1433);
#1431 = CARTESIAN_POINT('',(71.225,-108.3,-4.6E-02));
#1432 = DIRECTION('',(-0.,-0.,-1.));
#1433 = DIRECTION('',(-0.,-1.,0.));
#1434 = ADVANCED_FACE('',(#1435),#1446,.F.);
#1435 = FACE_BOUND('',#1436,.T.);
#1436 = EDGE_LOOP('',(#1437,#1438,#1444,#1445));
#1437 = ORIENTED_EDGE('',*,*,#476,.T.);
#1438 = ORIENTED_EDGE('',*,*,#1439,.T.);
#1439 = EDGE_CURVE('',#477,#838,#1440,.T.);
#1440 = LINE('',#1441,#1442);
#1441 = CARTESIAN_POINT('',(73.35,-108.55,-4.6E-02));
#1442 = VECTOR('',#1443,1.);
#1443 = DIRECTION('',(0.,0.,1.));
#1444 = ORIENTED_EDGE('',*,*,#837,.F.);
#1445 = ORIENTED_EDGE('',*,*,#1439,.F.);
#1446 = CYLINDRICAL_SURFACE('',#1447,0.25);
#1447 = AXIS2_PLACEMENT_3D('',#1448,#1449,#1450);
#1448 = CARTESIAN_POINT('',(73.35,-108.3,-4.6E-02));
#1449 = DIRECTION('',(-0.,-0.,-1.));
#1450 = DIRECTION('',(-0.,-1.,0.));
#1451 = ADVANCED_FACE('',(#1452),#1463,.F.);
#1452 = FACE_BOUND('',#1453,.T.);
#1453 = EDGE_LOOP('',(#1454,#1455,#1461,#1462));
#1454 = ORIENTED_EDGE('',*,*,#487,.T.);
#1455 = ORIENTED_EDGE('',*,*,#1456,.T.);
#1456 = EDGE_CURVE('',#488,#849,#1457,.T.);
#1457 = LINE('',#1458,#1459);
#1458 = CARTESIAN_POINT('',(84.1,-108.8,-4.6E-02));
#1459 = VECTOR('',#1460,1.);
#1460 = DIRECTION('',(0.,0.,1.));
#1461 = ORIENTED_EDGE('',*,*,#848,.F.);
#1462 = ORIENTED_EDGE('',*,*,#1456,.F.);
#1463 = CYLINDRICAL_SURFACE('',#1464,1.1);
#1464 = AXIS2_PLACEMENT_3D('',#1465,#1466,#1467);
#1465 = CARTESIAN_POINT('',(84.1,-107.7,-4.6E-02));
#1466 = DIRECTION('',(-0.,-0.,-1.));
#1467 = DIRECTION('',(-0.,-1.,0.));
#1468 = ( GEOMETRIC_REPRESENTATION_CONTEXT(3) 
GLOBAL_UNCERTAINTY_ASSIGNED_CONTEXT((#1472)) 
GLOBAL_UNIT_ASSIGNED_CONTEXT((#1469,#1470,#1471)) REPRESENTATION_CONTEXT
('Context #1','3D Context with UNIT and UNCERTAINTY') );
#1469 = ( LENGTH_UNIT() NAMED_UNIT(*) SI_UNIT(.MILLI.,.METRE.) );
#1470 = ( NAMED_UNIT(*) PLANE_ANGLE_UNIT() SI_UNIT($,.RADIAN.) );
#1471 = ( NAMED_UNIT(*) SI_UNIT($,.STERADIAN.) SOLID_ANGLE_UNIT() );
#1472 = UNCERTAINTY_MEASURE_WITH_UNIT(LENGTH_MEASURE(1.E-07),#1469,
  'distance_accuracy_value','confusion accuracy');
#1473 = CONTEXT_DEPENDENT_SHAPE_REPRESENTATION(#1474,#1476);
#1474 = ( REPRESENTATION_RELATIONSHIP('','',#32,#10) 
REPRESENTATION_RELATIONSHIP_WITH_TRANSFORMATION(#1475) 
SHAPE_REPRESENTATION_RELATIONSHIP() );
#1475 = ITEM_DEFINED_TRANSFORMATION('','',#11,#15);
#1476 = PRODUCT_DEFINITION_SHAPE('Placement','Placement of an item',
  #1477);
#1477 = NEXT_ASSEMBLY_USAGE_OCCURRENCE('1','=>[0:1:1:2]','',#5,#27,$);
#1478 = PRODUCT_RELATED_PRODUCT_CATEGORY('part',$,(#29));
#1479 = MECHANICAL_DESIGN_GEOMETRIC_PRESENTATION_REPRESENTATION('',(
    #1480),#1468);
#1480 = STYLED_ITEM('color',(#1481),#33);
#1481 = PRESENTATION_STYLE_ASSIGNMENT((#1482));
#1482 = SURFACE_STYLE_USAGE(.BOTH.,#1483);
#1483 = SURFACE_SIDE_STYLE('',(#1484));
#1484 = SURFACE_STYLE_FILL_AREA(#1485);
#1485 = FILL_AREA_STYLE('',(#1486));
#1486 = FILL_AREA_STYLE_COLOUR('',#1487);
#1487 = COLOUR_RGB('',0.313304153717,0.484529207832,0.410020903123);
ENDSEC;
END-ISO-10303-21;
